<?xml version="1.0"?>
<svg xmlns="http://www.w3.org/2000/svg" xmlns:xlink="http://www.w3.org/1999/xlink" viewBox="0 0 512 512" width="512" height="512"><linearGradient id="a" gradientUnits="userSpaceOnUse" x1="256" x2="256" y1="12.71" y2="487.564"><stop offset="0" stop-color="#00efd1"/><stop offset="1" stop-color="#00acea"/></linearGradient><linearGradient id="b" x1="116.5" x2="116.5" xlink:href="#a" y1="12.71" y2="487.564"/><linearGradient id="c" x1="395.5" x2="395.5" xlink:href="#a" y1="12.71" y2="487.564"/><path d="m461.919 198.719-35.784-96.548a41.821 41.821 0 0 0 -39.079-27.171h-255.777a41.822 41.822 0 0 0 -39.079 27.171l-35.333 95.345-14.667 13.559a57.478 57.478 0 0 0 -20.2 43.694v140.6a41.817 41.817 0 0 0 41.834 41.631h26.4a41.762 41.762 0 0 0 41.766-41.627v-20.373h248v20.373a41.762 41.762 0 0 0 41.77 41.627h26.4a41.817 41.817 0 0 0 41.83-41.627v-144.233a57.825 57.825 0 0 0 -17.868-41.591zm-350.965-89.7a21.646 21.646 0 0 1 20.325-14.019h255.777a21.646 21.646 0 0 1 20.325 14.017l31.166 83.983h-23.347a68.6 68.6 0 0 0 -135.727 0h-199.685zm283.938 83.981h-95.121a48.6 48.6 0 0 1 95.121 0zm-282.892 202.373a21.739 21.739 0 0 1 -21.769 21.627h-26.4a21.8 21.8 0 0 1 -21.831-21.627v-26.186c6 3.864 13.9 5.813 21.834 5.813h48.166zm336.166 21.627h-26.4a21.739 21.739 0 0 1 -21.766-21.627v-20.373h48.166c7.934 0 15.834-1.949 21.834-5.813v26.186a21.8 21.8 0 0 1 -21.834 21.627zm21.834-83.395a21.6 21.6 0 0 1 -21.834 21.395h-384.332a21.6 21.6 0 0 1 -21.834-21.395v-78.836a37.524 37.524 0 0 1 13.323-28.605c.115-.1.268-.3.379-.406l13.647-12.758h378.736l9.565 10.326c.141.151.365.348.515.489a37.857 37.857 0 0 1 11.835 27.325z" fill="url(#a)"/><path d="m164 263a10 10 0 0 0 -10-10h-75a10 10 0 0 0 -10 10v52a10 10 0 0 0 10 10h75a10 10 0 0 0 10-10zm-20 42h-55v-32h55z" fill="url(#b)"/><path d="m443 263a10 10 0 0 0 -10-10h-75a10 10 0 0 0 -10 10v52a10 10 0 0 0 10 10h75a10 10 0 0 0 10-10zm-20 42h-55v-32h55z" fill="url(#c)"/><g fill="url(#a)"><path d="m304.305 295h-96.605a10 10 0 1 0 0 20h96.61a10 10 0 1 0 0-20z"/><path d="m304.305 264h-96.605a10 10 0 0 0 0 20h96.61a10 10 0 1 0 0-20z"/></g></svg>
