<svg height="493pt" viewBox="-1 0 493 493.513" width="493pt" xmlns="http://www.w3.org/2000/svg" xmlns:xlink="http://www.w3.org/1999/xlink"><linearGradient id="lg1"><stop offset="0" stop-color="#00efd1"/><stop offset="1" stop-color="#00acea"/></linearGradient><linearGradient id="linear0" gradientUnits="userSpaceOnUse" x1="135.2565" x2="135.2565" xlink:href="#lg1" y1="8.28" y2="470.949"/><linearGradient id="linear1" gradientUnits="userSpaceOnUse" x1="378.7205" x2="378.7205" xlink:href="#lg1" y1="8.28" y2="470.949"/><linearGradient id="linear2" gradientUnits="userSpaceOnUse" x1="324.1295" x2="324.1295" xlink:href="#lg1" y1="8.28" y2="470.949"/><linearGradient id="linear3" gradientUnits="userSpaceOnUse" x1="433.3135" x2="433.3135" xlink:href="#lg1" y1="8.28" y2="470.949"/><path d="m218.8125 334.511719h-28.554688v-23.175781c1.617188-1.121094 3.082032-2.449219 4.351563-3.957032 15.730469-15.953125 24.578125-37.433594 24.648437-59.839844v-80.46875c6.523438-4.515624 11.863282-10.53125 15.570313-17.546874 5.019531-9.429688 7.71875-21.222657 7.71875-33.203126-.015625-1.757812-.792969-3.421874-2.132813-4.558593-1.34375-1.136719-3.109374-1.636719-4.847656-1.367188l-55.902344 8.785157c-9.691406 1.539062-19.601562 1.003906-29.074218-1.570313l-25.597656-6.914063c-8.640626-2.367187-17.890626-.542968-24.984376 4.929688-2.390624 1.765625-4.503906 3.878906-6.269531 6.265625-26.164062 14.847656-42.371093 42.570313-42.480469 72.648437v53c.105469 22.417969 8.988282 43.898438 24.75 59.84375 1.277344 1.308594 3.25 2.554688 4.25 3.769532v23.359375h-28.351562c-28.40625 0-51.648438 23.570312-51.648438 51.976562v100.535157c0 3.316406 2.820313 6.488281 6.132813 6.488281h257.9375c3.3125 0 5.929687-3.171875 5.929687-6.488281v-100.535157c0-28.40625-23.039062-51.976562-51.445312-51.976562zm-111.742188-209.359375c2.949219-2.242188 6.554688-3.457032 10.261719-3.460938 1.511719 0 3.015625.199219 4.476563.589844l25.621094 6.914062c11.105468 3.015626 22.71875 3.640626 34.078124 1.839844l48.632813-7.644531c-2.101563 21.722656-13.808594 33.25-24.125 36.691406-6.257813.949219-72.6875 10.867188-102.96875 10.867188-1.457031.015625-2.675781-1.101563-2.789063-2.550781v-29.9375c.074219-5.257813 2.589844-10.175782 6.8125-13.308594zm-18.8125 15.039062v28.207032c.015626 7.242187 5.347657 13.371093 12.519532 14.390624-11.90625 9.261719-23.519532 13.488282-37.519532 12.617188v-.867188c0-21.125 10-40.882812 25-54.347656zm-25 107.347656v-40.117187c2 .054687 2.421876.097656 3.5.097656 22.917969 0 41.03125-12.929687 52.8125-25.183593 32.550782-2.097657 78.6875-8.957032 87.6875-10.261719v75.46875c-.042968 19.265625-7.644531 37.746093-21.171874 51.46875-13.253907 13.851562-31.589844 21.683593-50.761719 21.683593s-37.507813-7.832031-50.765625-21.683593c-13.558594-13.710938-21.207032-32.1875-21.300782-51.472657zm72.097657 85.152344c15.171875 0 30.035156-4.261718 42.902343-12.300781v17.730469c-13 10.15625-27.769531 15.234375-43.015624 15.234375-15.246094 0-30.984376-5.085938-42.984376-15.207031v-17.890626c12.90625 8.125 27.847657 12.4375 43.097657 12.433594zm122.902343 148.820313h-246v-95.023438c0-21.789062 17.859376-39.976562 39.648438-39.976562h32.007812c29.652344 25 73.003907 25 102.660157 0h32.238281c21.789062 0 39.445312 18.1875 39.445312 39.976562zm0 0" fill="url(#linear0)"/><path d="m378.722656 70.863281c-11.929687 0-21.601562 9.671875-21.601562 21.601563 0 11.925781 9.671875 21.597656 21.601562 21.597656 11.929688 0 21.597656-9.671875 21.597656-21.597656-.011718-11.925782-9.675781-21.585938-21.597656-21.601563zm0 31.199219c-5.304687 0-9.601562-4.296875-9.601562-9.597656 0-5.304688 4.296875-9.601563 9.601562-9.601563 5.300782 0 9.597656 4.296875 9.597656 9.601563-.003906 5.296875-4.300781 9.59375-9.597656 9.597656zm0 0" fill="url(#linear1)"/><path d="m324.128906 70.863281c-11.929687 0-21.601562 9.671875-21.601562 21.601563 0 11.925781 9.671875 21.597656 21.601562 21.597656 11.929688 0 21.597656-9.671875 21.597656-21.597656-.011718-11.925782-9.675781-21.585938-21.597656-21.601563zm0 31.199219c-5.300781 0-9.601562-4.296875-9.601562-9.597656 0-5.304688 4.300781-9.601563 9.601562-9.601563 5.300782 0 9.597656 4.296875 9.597656 9.601563-.003906 5.296875-4.296874 9.59375-9.597656 9.597656zm0 0" fill="url(#linear2)"/><path d="m433.3125 70.863281c-11.929688 0-21.597656 9.671875-21.597656 21.601563 0 11.925781 9.667968 21.597656 21.597656 21.597656s21.601562-9.671875 21.601562-21.597656c-.015624-11.925782-9.675781-21.589844-21.601562-21.601563zm0 31.199219c-5.300781 0-9.597656-4.296875-9.597656-9.597656 0-5.304688 4.296875-9.601563 9.597656-9.601563 5.304688 0 9.601562 4.296875 9.601562 9.601563-.007812 5.296875-4.300781 9.59375-9.601562 9.597656zm0 0" fill="url(#linear3)"/><path d="m457.917969 26.199219c-21.265625-16.894531-49.394531-26.199219-79.199219-26.199219s-57.929688 9.300781-79.199219 26.199219c-22.058593 17.519531-34.199219 41.054687-34.199219 66.265625 0 24.832031 11.785157 48.039062 33.222657 65.472656l-1.601563 40.949219c-.078125 2.050781.894532 4 2.582032 5.167969 1.691406 1.167968 3.859374 1.390624 5.75.59375l50.933593-21.734376c7.417969 1.132813 14.914063 1.667969 22.417969 1.597657h.101562c29.800782 0 57.925782-9.097657 79.199219-25.992188 22.058594-17.519531 34.199219-40.949219 34.199219-66.160156s-12.148438-48.640625-34.207031-66.160156zm-7.460938 122.925781c-19.160156 15.214844-44.636719 23.386719-71.738281 23.386719h-.089844c-7.40625.070312-14.800781-.507813-22.109375-1.71875-1.148437-.164063-2.316406.003906-3.371093.484375l-43.847657 18.585937 1.351563-34.539062c.074218-1.941407-.796875-3.796875-2.335938-4.976563l-.210937-.15625c-.375-.289062-.75-.570312-1.117188-.863281-19.132812-15.199219-29.667969-35.394531-29.667969-56.867187 0-21.472657 10.535157-41.671876 29.664063-56.867188 19.15625-15.214844 44.632813-23.597656 71.738281-23.597656 27.101563 0 52.578125 8.378906 71.734375 23.597656 19.128907 15.203125 29.664063 35.289062 29.664063 56.765625 0 21.472656-10.535156 41.566406-29.664063 56.765625zm0 0" fill="url(#linear1)"/></svg>