<?xml version="1.0"?>
<svg xmlns="http://www.w3.org/2000/svg" xmlns:xlink="http://www.w3.org/1999/xlink" viewBox="0 0 512 512" width="512" height="512"><linearGradient id="a" gradientUnits="userSpaceOnUse" x1="256" x2="256" y1="31.616" y2="489.508"><stop offset="0" stop-color="#00efd1"/><stop offset="1" stop-color="#00acea"/></linearGradient><g fill="url(#a)"><path d="m300.5 98.439a51.4 51.4 0 0 0 -88.992 0l-152.245 263.736a51.2 51.2 0 0 0 44.497 76.825h304.48a51.23 51.23 0 0 0 44.5-76.882zm134.92 304.978a30.957 30.957 0 0 1 -27.18 15.583h-304.48a31.23 31.23 0 0 1 -27.178-46.88v.025l152.24-263.713a31.4 31.4 0 0 1 54.354.007l152.242 263.68a30.927 30.927 0 0 1 .002 31.298z"/><path d="m286 336a10 10 0 0 0 -10-10h-40a10 10 0 0 0 -10 10v50a10 10 0 0 0 10 10h40a10 10 0 0 0 10-10zm-20 40h-20v-30h20z"/><path d="m286 183a10 10 0 0 0 -10-10h-40a10 10 0 0 0 -10 10v117a10 10 0 0 0 10 10h40a10 10 0 0 0 10-10zm-20 107h-20v-97h20z"/></g></svg>
